<?xml version="1.0" encoding="UTF-8" standalone="no" ?>
<!DOCTYPE svg PUBLIC "-//W3C//DTD SVG 1.1//EN" "http://www.w3.org/Graphics/SVG/1.1/DTD/svg11.dtd">
<svg xmlns="http://www.w3.org/2000/svg" xmlns:xlink="http://www.w3.org/1999/xlink" version="1.1" width="210" height="210" viewBox="0 0 210 210" xml:space="preserve">
<desc>Created with Fabric.js 1.7.22</desc>
<defs>
</defs>
<g id="icon" style="stroke: none; stroke-width: 1; stroke-dasharray: none; stroke-linecap: butt; stroke-linejoin: miter; stroke-miterlimit: 10; fill: none; fill-rule: nonzero; opacity: 1;" transform="translate(-1.1666666666666714 -1.1666666666666714) scale(2.33 2.33)" >
	<path d="M 77.612 90 H 12.388 c -0.829 0 -1.5 -0.672 -1.5 -1.5 V 36.637 H 1.5 c -0.642 0 -1.212 -0.408 -1.419 -1.015 c -0.208 -0.607 -0.006 -1.279 0.502 -1.671 l 43.5 -33.637 c 0.54 -0.418 1.295 -0.418 1.835 0 l 43.5 33.637 c 0.507 0.393 0.709 1.064 0.502 1.671 c -0.208 0.607 -0.778 1.015 -1.42 1.015 h -9.388 V 88.5 C 79.112 89.328 78.44 90 77.612 90 z M 13.888 87 h 62.225 V 35.137 c 0 -0.829 0.672 -1.5 1.5 -1.5 h 6.496 L 45 3.396 L 5.892 33.637 h 6.496 c 0.829 0 1.5 0.671 1.5 1.5 V 87 z" style="stroke: none; stroke-width: 1; stroke-dasharray: none; stroke-linecap: butt; stroke-linejoin: miter; stroke-miterlimit: 10; fill: rgb(0,0,0); fill-rule: nonzero; opacity: 1;" transform=" matrix(1 0 0 1 0 0) " stroke-linecap="round" />
	<path d="M 45 72.063 c -0.888 0 -1.776 -0.336 -2.452 -1.009 L 29.434 57.998 C 27.219 55.782 26 52.829 26 49.681 c 0 -3.149 1.219 -6.102 3.432 -8.314 c 4.089 -4.089 11.021 -4.598 15.779 -1.157 l 0 0 c 0.177 0.126 0.404 0.124 0.58 -0.008 c 4.59 -3.424 10.667 -2.946 14.777 1.165 c 4.584 4.584 4.584 12.044 0 16.629 L 47.453 71.054 C 46.776 71.727 45.888 72.063 45 72.063 z M 38.021 40.945 c -2.4 0 -4.79 0.864 -6.468 2.542 C 29.907 45.134 29 47.333 29 49.681 c 0 2.347 0.907 4.547 2.553 6.193 l 13.111 13.053 c 0.186 0.186 0.487 0.186 0.672 0 l 13.113 -13.056 c 3.412 -3.412 3.412 -8.969 -0.002 -12.384 c -3.029 -3.029 -7.496 -3.394 -10.861 -0.881 c -1.229 0.917 -2.892 0.933 -4.133 0.034 C 41.878 41.501 39.947 40.945 38.021 40.945 z" style="stroke: none; stroke-width: 1; stroke-dasharray: none; stroke-linecap: butt; stroke-linejoin: miter; stroke-miterlimit: 10; fill: rgb(0,0,0); fill-rule: nonzero; opacity: 1;" transform=" matrix(1 0 0 1 0 0) " stroke-linecap="round" />
</g>
</svg>